<svg width="50" height="50" viewBox="0 0 50 50" fill="none" xmlns="http://www.w3.org/2000/svg">
<rect width="50" height="50" rx="20" fill="#EEEEEE"/>
<path d="M25.5 39C33.5081 39 40 32.5081 40 24.5C40 16.4919 33.5081 10 25.5 10C17.4919 10 11 16.4919 11 24.5C11 32.5081 17.4919 39 25.5 39Z" fill="#3B5998"/>
<path d="M30.3718 25.4424H27.7844V34.9212H23.8644V25.4424H22V22.1112H23.8644V19.9555C23.8644 18.4139 24.5967 16 27.8193 16L30.7231 16.0121V19.2457H28.6162C28.2706 19.2457 27.7847 19.4183 27.7847 20.1537V22.1143H30.7143L30.3718 25.4424Z" fill="white"/>
</svg>
