<svg width="50" height="50" viewBox="0 0 50 50" fill="none" xmlns="http://www.w3.org/2000/svg">
<rect width="50" height="50" rx="20" fill="#EEEEEE"/>
<path d="M18.6846 26.7084L17.9488 29.4509L15.2596 29.5077C14.4559 28.0193 14 26.3164 14 24.5069C14 22.757 14.4262 21.1068 15.1817 19.6538H15.1823L17.5765 20.0921L18.6253 22.4682C18.4058 23.1072 18.2862 23.7931 18.2862 24.5069C18.2863 25.2815 18.4268 26.0237 18.6846 26.7084Z" fill="#FBBB00"/>
<path d="M34.8153 22.5616C34.9367 23.1984 35 23.8561 35 24.5283C35 25.2821 34.9205 26.0173 34.7689 26.7265C34.2543 29.1399 32.9097 31.2472 31.047 32.7385L31.0464 32.7379L28.0303 32.5846L27.6034 29.9306C28.8394 29.2087 29.8053 28.079 30.3141 26.7265H24.6616V22.5616H30.3965H34.8153Z" fill="#518EF8"/>
<path d="M31.1225 32.7074L31.1231 32.708C29.3227 34.142 27.0356 35 24.546 35C20.5452 35 17.0667 32.7841 15.2923 29.5231L18.6969 26.7615C19.5841 29.1079 21.8682 30.7781 24.546 30.7781C25.697 30.7781 26.7753 30.4698 27.7006 29.9315L31.1225 32.7074Z" fill="#28B446"/>
<path d="M31.1231 16.3969L27.7292 19.1582C26.7742 18.565 25.6453 18.2223 24.4359 18.2223C21.7051 18.2223 19.3847 19.9693 18.5443 22.4L15.1314 19.6233H15.1308C16.8744 16.2825 20.3869 14 24.4359 14C26.9779 14 29.3087 14.8998 31.1231 16.3969Z" fill="#F14336"/>
</svg>
